<svg xmlns="http://www.w3.org/2000/svg" viewBox="0 0 512 512" role="img" aria-labelledby="title desc">
  <title id="title">KataNote brand icon</title>
  <desc id="desc">Original KataNote monogram built from a folded note and diagonal pen stroke.</desc>
  <defs>
    <linearGradient id="surface" x1="70" y1="64" x2="450" y2="462" gradientUnits="userSpaceOnUse">
      <stop stop-color="#23483b"/>
      <stop offset="1" stop-color="#407d68"/>
    </linearGradient>
    <linearGradient id="paper" x1="126" y1="95" x2="345" y2="402" gradientUnits="userSpaceOnUse">
      <stop stop-color="#fffdf2"/>
      <stop offset="1" stop-color="#e4f0e8"/>
    </linearGradient>
    <filter id="softShadow" x="-20%" y="-20%" width="140%" height="150%" color-interpolation-filters="sRGB">
      <feDropShadow dx="0" dy="20" stdDeviation="18" flood-color="#102018" flood-opacity=".24"/>
    </filter>
  </defs>
  <rect width="512" height="512" rx="118" fill="url(#surface)"/>
  <path d="M104 350C82 289 92 214 129 160c41-61 111-91 178-76 63 14 113 66 125 129 12 67-17 137-73 179-73 54-207 44-255-42Z" fill="#f2c86b" opacity=".16"/>
  <g filter="url(#softShadow)">
    <path d="M154 116h160l62 64v214c0 22-18 40-40 40H154c-22 0-40-18-40-40V156c0-22 18-40 40-40Z" fill="url(#paper)"/>
    <path d="M314 116v52c0 13 11 24 24 24h38" fill="#c7decf"/>
    <path d="M166 186h68M166 236h58" stroke="#23483b" stroke-width="15" stroke-linecap="round" opacity=".34"/>
    <path d="M171 348V178" stroke="#23483b" stroke-width="35" stroke-linecap="round"/>
    <path d="M178 318 315 178" stroke="#23483b" stroke-width="36" stroke-linecap="round"/>
    <path d="M222 271 348 397" stroke="#23483b" stroke-width="36" stroke-linecap="round"/>
    <path d="M318 177 349 146c8-8 21-8 29 0l14 14c8 8 8 21 0 29l-31 31" stroke="#f2c86b" stroke-width="28" stroke-linecap="round"/>
  </g>
  <circle cx="389" cy="104" r="14" fill="#f2c86b"/>
  <circle cx="104" cy="408" r="10" fill="#e4f0e8"/>
</svg>
